@startuml
title
 Connection API as Invitee

 The diagram shows Connection object state transitions in case acting as an Invitee
end title


[*] --> VcxStateOfferSent: vcx_connection_create_with_invite(Invitation)

VcxStateOfferSent --> VcxStateRequestReceived: vcx_connection_connect

note left of VcxStateRequestReceived : use vcx_connection_update_state \n or vcx_connection_update_state_with_message \n for connection status updates

VcxStateRequestReceived --> VcxStateAccepted: received `ConnectionResponse` message

VcxStateRequestReceived --> VcxStateNone: received `ConnectionProblemReport` message

@enduml